<svg version="1.1" xmlns="http://www.w3.org/2000/svg" style="display: block;" viewBox="0 0 2048 2048" width="1024" height="1024" preserveAspectRatio="none">
<path transform="translate(0,0)" fill="rgb(51,51,51)" d="M 0 0 L 2048 0 L 2048 2048 L 0 2048 L 0 0 z"/>
<path transform="translate(0,0)" fill="rgb(254,254,254)" d="M 1023.94 351.953 C 1056.06 368.59 1096.07 393.174 1128.25 411.568 L 1347.96 537.462 C 1348.93 636.572 1350.4 735.677 1352.38 834.772 L 1639.83 1010.54 C 1640.3 1133.64 1637.41 1258.21 1636.99 1381.42 C 1542.44 1434.05 1449.82 1491.75 1355.53 1544.95 C 1342.59 1552.25 1329.57 1559.64 1316.92 1567.42 C 1287.81 1549.93 1257.03 1533.37 1227.47 1516.53 L 1024.5 1400.99 C 1018.89 1402.4 966.949 1433.36 958.645 1438.07 L 731.22 1567.25 C 705.012 1551.47 678.23 1536.68 651.83 1521.22 L 411.07 1381.05 L 408.522 1010.3 C 462.424 979.451 521.59 941.547 574.918 908.822 L 651.055 862.185 C 665.397 853.402 682.291 843.582 696.023 834.192 L 700.376 537.236 C 712.587 531.018 726.803 522.31 738.965 515.318 L 813.216 472.463 L 1023.94 351.953 z"/>
<path transform="translate(0,0)" fill="rgb(51,51,51)" d="M 1327.43 876.18 C 1330.65 877.444 1343.91 885.966 1347.82 888.382 L 1395.28 917.798 L 1576.5 1028.59 C 1498.47 1078.37 1415.03 1129.32 1335.96 1177.68 L 1328.28 1173.21 L 1071.73 1024.05 L 1220.5 937.752 C 1255.42 917.507 1292.23 895.552 1327.43 876.18 z"/>
<path transform="translate(0,0)" fill="rgb(51,51,51)" d="M 997.24 1067.8 L 998.114 1067.96 C 1000.1 1070.22 999.219 1130.19 999.204 1139.48 L 999.198 1359.99 L 816.592 1463.69 L 773.357 1488.13 C 767.148 1491.69 751.324 1501.19 745.322 1503.33 L 744.035 1501.98 C 741.524 1409.11 737.941 1311.82 736.953 1219.21 C 823.743 1170.02 910.949 1118.09 997.24 1067.8 z"/>
<path transform="translate(0,0)" fill="rgb(51,51,51)" d="M 748.951 567.194 C 774.097 578.35 807.098 597.073 831.957 610.077 C 887.924 639.211 943.727 668.659 999.364 698.418 C 998.766 721.524 999.249 746.835 999.24 770.07 L 999.215 905.872 L 999.245 953.477 C 999.267 959.917 999.761 974.357 998.734 979.999 L 997.464 980.275 L 812.192 872.623 C 790.156 859.814 766.621 847.109 745.054 834.084 C 746.746 746.717 749.285 654.307 748.951 567.194 z"/>
<path transform="translate(0,0)" fill="rgb(51,51,51)" d="M 457.629 1077.24 C 464.951 1081.13 475.289 1087.99 482.58 1092.44 C 503.364 1105.05 524.035 1117.86 544.592 1130.84 C 591.967 1160.25 640.775 1189.52 687.783 1219.37 L 694.955 1490.38 C 671.289 1475.31 640.07 1458.28 615.277 1443.86 L 459.763 1353.49 C 460.028 1322.92 459.157 1290.65 458.94 1259.93 L 457.629 1077.24 z"/>
<path transform="translate(0,0)" fill="rgb(51,51,51)" d="M 1048.86 1066.73 C 1057.57 1070.98 1073.62 1081 1082.39 1086.12 L 1149.79 1125.4 L 1243.27 1179.84 C 1264.99 1192.36 1290.44 1206.2 1311.16 1219.75 C 1311.01 1277.46 1307.32 1336.65 1306.8 1394.69 C 1297.35 1389.53 1285.32 1381.67 1275.95 1375.86 L 1156.15 1302 C 1121.95 1317.57 1082.95 1337.92 1048.75 1354.63 L 1048.86 1066.73 z"/>
<path transform="translate(0,0)" fill="rgb(51,51,51)" d="M 722.434 876.86 C 757.698 895.759 799.698 921.22 834.62 941.681 L 976.481 1024 C 910.755 1061.33 845.253 1100.26 779.907 1138.32 C 761.474 1150.16 731.5 1166.58 712.078 1177.61 C 664.673 1149.78 616.259 1118.29 569.309 1089.3 C 621.467 1057.89 673.786 1026.74 726.264 995.863 C 724.312 957 723.327 915.796 722.434 876.86 z"/>
<path transform="translate(0,0)" fill="rgb(51,51,51)" d="M 1197.44 619.974 L 1198.35 620.064 C 1199.98 624.308 1199.15 757.549 1199.14 770.753 C 1232.66 790.581 1267.2 814.67 1300.89 835.385 C 1285.27 844.842 1267.23 854.565 1251.19 863.903 L 1114.43 943.39 C 1094.35 953.531 1069.63 969.94 1048.72 981.136 L 1048.78 698.94 C 1064.41 689.647 1084.86 679.462 1101.18 670.792 L 1197.44 619.974 z"/>
<path transform="translate(0,0)" fill="rgb(51,51,51)" d="M 1589.17 1077.84 C 1590.31 1078.08 1589.66 1077.83 1590.9 1079.01 C 1591.24 1106.53 1590.23 1134.23 1589.99 1161.79 L 1588.93 1348.1 C 1559.57 1331.58 1530.03 1316.11 1500.76 1299.33 C 1466.03 1318.64 1422.08 1347.42 1387.24 1368.7 C 1376.91 1375.14 1366.48 1381.41 1355.94 1387.51 C 1356.42 1332.05 1358.84 1275.14 1360.09 1219.45 L 1589.17 1077.84 z"/>
<path transform="translate(0,0)" fill="rgb(51,51,51)" d="M 1018.18 410.834 L 1019.25 411.38 C 1021.52 420.9 1018.4 487.202 1018.2 499.934 C 1031.05 505.457 1048.87 516.901 1061.72 523.813 C 1096.66 542.608 1130.92 563.112 1165.98 581.722 C 1150.61 590.594 1130.74 600.474 1114.86 608.922 C 1084.54 625.178 1054.14 641.271 1023.65 657.201 C 1007.76 648.491 991.759 639.984 975.654 631.683 L 861.253 571.173 C 843.526 561.851 813.42 547.082 797.548 537.006 L 1018.18 410.834 z"/>
<path transform="translate(0,0)" fill="rgb(254,254,254)" d="M 663.024 654.044 C 665.174 657.07 662.081 798.834 661.849 814.786 C 616.563 843.004 570.982 870.744 525.112 898.003 C 522.707 895.496 524.546 849.122 524.669 841.36 L 526.081 738.548 C 570.086 712.047 620.367 681.455 663.024 654.044 z"/>
<path transform="translate(0,0)" fill="rgb(254,254,254)" d="M 1384.28 653.729 C 1430.52 681.342 1476.41 709.537 1521.94 738.308 C 1521.86 791.458 1524 845.211 1524.25 898.501 C 1479.44 871.272 1429.73 843.016 1386.03 814.809 C 1386.2 763.08 1382.83 704.452 1384.28 653.729 z"/>
<path transform="translate(0,0)" fill="rgb(254,254,254)" d="M 1024.63 1440.29 C 1033.71 1444.55 1056.94 1459.01 1066.59 1464.55 L 1160.81 1518.62 C 1147.15 1527.75 1129.84 1537.56 1115.49 1546.11 C 1084.83 1564.1 1054.31 1582.33 1023.94 1600.81 C 1012.58 1592.73 990.752 1580.62 978.028 1573.04 C 947.669 1555.01 917.404 1536.83 887.236 1518.49 C 931.068 1493.08 980.131 1464.55 1024.63 1440.29 z"/>
</svg>